# xmcd
#
# Track frame offsets: 
#        150
#        19991
#        46174
#        67686
#
# Disc length: 1239 seconds
#
# Revision: 2
# Processed by: cddbd v1.5.2PL0 Copyright (c) Steve Scherf et al.
# Submitted via: ExactAudioCopyFreeDBPlugin 1.0
#
DISCID=2704d504
DTITLE=罗大佑 - 美丽岛[CDⅡ]
DYEAR=2004
DGENRE=Folk
TTITLE0=变天着花
TTITLE1=阿辉饲了一只狗
TTITLE2=真的假的
TTITLE3=南台湾仔共
EXTD=
EXTT0=
EXTT1=
EXTT2=
EXTT3=
PLAYORDER=
